<?xml version="1.0" encoding="UTF-8" standalone="no"?>
<!-- Created with Inkscape (http://www.inkscape.org/) -->

<svg
   xmlns:dc="http://purl.org/dc/elements/1.1/"
   xmlns:cc="http://creativecommons.org/ns#"
   xmlns:rdf="http://www.w3.org/1999/02/22-rdf-syntax-ns#"
   xmlns:svg="http://www.w3.org/2000/svg"
   xmlns="http://www.w3.org/2000/svg"
   xmlns:sodipodi="http://sodipodi.sourceforge.net/DTD/sodipodi-0.dtd"
   xmlns:inkscape="http://www.inkscape.org/namespaces/inkscape"
   width="94.346146mm"
   height="99.140434mm"
   viewBox="0 0 94.346146 99.140434"
   version="1.1"
   id="svg8"
   inkscape:version="0.92.5 (2060ec1f9f, 2020-04-08)"
   sodipodi:docname="anedonia.svg">
  <defs
     id="defs2" />
  <sodipodi:namedview
     id="base"
     pagecolor="#ffffff"
     bordercolor="#666666"
     borderopacity="1.0"
     inkscape:pageopacity="0.0"
     inkscape:pageshadow="2"
     inkscape:zoom="1.4"
     inkscape:cx="5.9343586"
     inkscape:cy="188.67596"
     inkscape:document-units="mm"
     inkscape:current-layer="layer1"
     showgrid="false"
     inkscape:window-width="2560"
     inkscape:window-height="1376"
     inkscape:window-x="0"
     inkscape:window-y="27"
     inkscape:window-maximized="1"
     fit-margin-top="0"
     fit-margin-left="0"
     fit-margin-right="0"
     fit-margin-bottom="0" />
  <metadata
     id="metadata5">
    <rdf:RDF>
      <cc:Work
         rdf:about="">
        <dc:format>image/svg+xml</dc:format>
        <dc:type
           rdf:resource="http://purl.org/dc/dcmitype/StillImage" />
        <dc:title />
      </cc:Work>
    </rdf:RDF>
  </metadata>
  <g
     inkscape:label="Capa 1"
     inkscape:groupmode="layer"
     id="layer1"
     transform="translate(-49.712135,-157.5346)">
    <flowRoot
       xml:space="preserve"
       id="flowRoot815"
       style="font-style:normal;font-weight:normal;font-size:40px;line-height:1.25;font-family:sans-serif;letter-spacing:0px;word-spacing:0px;fill:#000000;fill-opacity:1;stroke:none"><flowRegion
         id="flowRegion817"><rect
           id="rect819"
           width="382.85715"
           height="402.85715"
           x="217.14285"
           y="388.23398" /></flowRegion><flowPara
         id="flowPara821" /></flowRoot>    <circle
       style="opacity:1;fill:#1f1f1f;fill-opacity:1;stroke:none;stroke-width:2.64583325;stroke-miterlimit:4;stroke-dasharray:none;stroke-opacity:1"
       id="path849"
       cx="96.885208"
       cy="207.33644"
       r="47.173073" />
    <g
       aria-label="h"
       transform="matrix(0.82127364,-0.32425924,0.38541082,1.0654512,0,0)"
       style="font-style:normal;font-variant:normal;font-weight:normal;font-stretch:normal;font-size:21.46459579px;line-height:1.25;font-family:Parisienne;-inkscape-font-specification:Parisienne;letter-spacing:0px;word-spacing:0px;fill:#f9f4ed;fill-opacity:1;stroke:none;stroke-width:0.53661489"
       id="text829-3-9">
      <path
         d="m 12.529892,218.79925 q 2.666305,-3.62215 5.533841,-6.64061 2.867536,-3.06876 5.78538,-5.2823 2.917844,-2.21354 5.735072,-3.42092 2.867536,-1.25769 5.533842,-1.25769 1.811075,0 2.968151,0.55338 1.207384,0.55339 1.861383,1.45892 0.704307,0.85523 0.955845,1.91169 0.301846,1.05647 0.301846,2.11293 0,1.81107 -0.754615,3.92399 -0.754614,2.06262 -1.91169,4.32646 -1.106769,2.26384 -2.414767,4.6283 -1.307999,2.36446 -2.465075,4.62831 -1.106769,2.26384 -1.861383,4.42707 -0.754615,2.11292 -0.754615,3.97431 0,1.15707 0.503076,2.16322 0.553385,0.95585 1.911691,0.95585 1.609845,0 3.571843,-1.60984 1.961999,-1.66016 3.974305,-4.17554 2.062613,-2.56569 4.074919,-5.68476 2.062614,-3.11908 3.823382,-6.08723 l 1.811075,1.40861 q -0.553384,0.75462 -1.509229,2.46508 -0.955846,1.66015 -2.263845,3.77307 -1.257691,2.06262 -2.867536,4.27615 -1.559537,2.21354 -3.370612,4.07492 -1.760768,1.81108 -3.722766,2.96815 -1.961999,1.20739 -3.974305,1.20739 -1.307999,0 -2.615998,-0.30185 -1.307998,-0.30184 -2.364459,-1.10677 -1.056461,-0.80492 -1.71046,-2.16323 -0.654,-1.40861 -0.654,-3.52153 0,-2.46508 0.804923,-4.98046 0.85523,-2.56569 2.062613,-5.03076 1.257692,-2.51539 2.716613,-4.82954 1.458922,-2.36446 2.666306,-4.42707 1.257691,-2.06261 2.062614,-3.72277 0.85523,-1.71046 0.85523,-2.86753 0,-2.06262 -2.012306,-2.06262 -2.867536,0 -6.087226,1.91169 -3.169382,1.86139 -6.389072,4.87985 -3.219689,3.01845 -6.338764,6.79153 -3.119074,3.72276 -5.835687,7.44553 l -7.6467627,14.38799 -4.5779962,-1.81108 q 6.3890716,-13.93522 12.2750669,-27.51828 5.936302,-13.63337 12.174451,-26.91459 0.955845,-2.06262 2.213537,-4.47738 1.307999,-2.41477 2.76692,-4.82954 1.50923,-2.41477 3.21969,-4.6283 1.71046,-2.21354 3.521536,-3.924 1.811075,-1.71046 3.722766,-2.71661 1.961998,-1.05646 3.923996,-1.05646 2.213537,0 3.420921,1.25769 1.257691,1.20738 1.257691,3.47123 0,2.36446 -1.257691,5.38291 -1.257692,2.96816 -3.370613,6.28846 -2.112921,3.32031 -4.93015,6.84184 -2.76692,3.52154 -5.885995,6.99276 -3.068766,3.47123 -6.238148,6.74123 -3.169382,3.21969 -6.087226,5.98661 z m 29.480283,-53.72857 q -2.263845,0 -4.175535,1.76077 -1.861383,1.71046 -4.07492,5.68476 -2.213537,3.97431 -5.081073,10.36338 -2.867536,6.38907 -6.992763,15.69599 5.533841,-5.38292 9.659069,-10.41369 4.175535,-5.08107 6.942456,-9.2566 2.76692,-4.17554 4.125227,-7.24431 1.408614,-3.11907 1.408614,-4.6283 0,-0.90554 -0.503076,-1.40861 -0.503077,-0.55339 -1.307999,-0.55339 z"
         style="font-size:103.03006744px;fill:#f9f4ed;fill-opacity:1;stroke-width:0.53661489"
         id="path883" />
    </g>
  </g>
</svg>
