<?xml version="1.0" encoding="UTF-8" standalone="no"?>
<svg
   xmlns:dc="http://purl.org/dc/elements/1.1/"
   xmlns:cc="http://creativecommons.org/ns#"
   xmlns:rdf="http://www.w3.org/1999/02/22-rdf-syntax-ns#"
   xmlns:svg="http://www.w3.org/2000/svg"
   xmlns="http://www.w3.org/2000/svg"
   xmlns:sodipodi="http://sodipodi.sourceforge.net/DTD/sodipodi-0.dtd"
   xmlns:inkscape="http://www.inkscape.org/namespaces/inkscape"
   version="1.1"
   id="Layer_1"
   x="0px"
   y="0px"
   viewBox="0 0 2687.859 1211.516"
   enable-background="new 0 0 2687.859 1211.516"
   xml:space="preserve"
   sodipodi:docname="ornament_south.svg"
   inkscape:version="0.92.5 (2060ec1f9f, 2020-04-08)"><metadata
   id="metadata39"><rdf:RDF><cc:Work
       rdf:about=""><dc:format>image/svg+xml</dc:format><dc:type
         rdf:resource="http://purl.org/dc/dcmitype/StillImage" /><dc:title></dc:title></cc:Work></rdf:RDF></metadata><defs
   id="defs37" /><sodipodi:namedview
   pagecolor="#ffffff"
   bordercolor="#666666"
   borderopacity="1"
   objecttolerance="10"
   gridtolerance="10"
   guidetolerance="10"
   inkscape:pageopacity="0"
   inkscape:pageshadow="2"
   inkscape:window-width="2560"
   inkscape:window-height="1376"
   id="namedview35"
   showgrid="false"
   inkscape:zoom="0.19383458"
   inkscape:cx="1343.9294"
   inkscape:cy="605.758"
   inkscape:window-x="0"
   inkscape:window-y="27"
   inkscape:window-maximized="1"
   inkscape:current-layer="g32" />
<g
   id="g32">
	<path
   d="m 1343.93,284.12178 c -56.431,-76.632 -135.308,-136.304 -235.658,-177.191 -0.164,-0.976 0.528,-19.682998 -17.698,-24.805998 -7.406,-2.634 -17.797,-0.168 -23.731,6.071 -0.659,0.528 -1.289,1.604 -2.258,1.052 -82.688,-29.344 -174.59,-27.104 -209.996,-18.901 -220.792,33.688998 -350.05,206.047998 -517.328,232.650998 -48.71,-5.178 -72.492,-40.234 -74.163,-41.294 -8.29,5.826 -5.353,14.996 -5.29,16.25 -3.002,-0.68 -14.817,-12.437 -33.925,-14.128 -11.373,-1.629 -28.88,2.247 -34.816,-13.74 -1.528,1.844 -5.979,13.181 -5.688,21.71 -3.312,-0.729 -55.218,-35.637 -53.314,-114.758 5.087,-72.166998 62.774,-107.904998 96.701,-105.993998 67.232,1.767 77.16,54.388998 59.623,72.127998 -13.442,13.362 -40.31,7.086 -39.114,-17.989 0.567,-10.236998 8.658,-19.025998 18.305,-21.825998 2.388,-0.833 4.937,-0.557 7.398,-0.765 -2.398,-1.405 -5.219,-1.632 -7.941,-1.792 -35.467,0.254 -41.969,55.254998 -3.45,65.591998 16.379,5.681 46.292,-3.45 51.618,-33.944 3.753,-19.380998 -6.479,-33.917998 -7.253,-36.651998 3.609,0.057 31.519,23.729 13.217,54.577998 -11.5,18.905 -17.326,24.324 -25.654,32.893 -14.804,15.084 -8.89,15.474 -7.907,44.177 0.488,16.018 -8.346,26.494 -27.355,25.81 -34.16,-0.871 -39.979,-11.159 -47.936,-15.185 8.029,7.917 18.644,12.762 29.516,15.358 89.76,20.052 144.52,-97.573 74.836,-162.340998 -72.232,-64.4150004 -181.1,-27.054 -197.084,75.339998 -3.905,45.651 1.894,80.302 36.26,119.846 0.742,1.017 2.413,1.841 1.846,3.28 -0.001,0 -17.108,-0.339 -17.108,-0.339 -15.53,0.341 -25.164,-9.443 -26.187,-10.262 -2.708,5.363 -3.217,12.113 -0.228,17.461 1.827,3.6 5.063,6.129 8.087,8.663 -2.16,1.798 -25.067,-2.886 -43.741,18.178 -4.703,5.832 -11.072,14.789 -12.583,22.079 15.197,-1.554 36.635,14.243 44.758,18.043 19.778,9.912 33.978,3.417 37.354,2.476 0.126,0.902 -0.562,1.556 -1.042,2.205 -6.56,7.437 -9.055,17.727 -8.634,27.461 16.859,-14.531 41.302,-3.748 60.858,-4.641 13.156,-1.499 18.378,-6.57 21.396,-7.941 -1.273,7.063 -1.948,14.346 3.668,23.89 0.504,0.373 0.742,-0.253 0.998,-0.567 12.226,-17.454 33.228,-14.247 37.534,-28.842 2.568,1.943 2.084,5.299 9.365,9.544 1.623,0.94 3.285,1.9 5.15,2.18 12.637,-29.555 67.755,-49.456 70.344,-49.835 159.09,-27.107 283.049,-180.441 477.987,-230.693998 55.366,-13.104 98.888,-13.465 106.168,-13.053 0.067,0.31 0.198,0.935 0.266,1.245 -48.28,0.642 -136.622,26.596998 -185.849,86.642998 -97.689,115.648 -56.363,293.821 87.927,340.637 143.487,43.945 244.956,-41.906 245.132,-171.154 1.471,-74.027 -65.828,-149.311 -151.837,-157.225 -79.271,-10.753 -129.147,46.289 -130.059,46.701 -10.882,5.289 -19.871,3.13 -27.897,3.755 -7.082,0.901 -12.867,7.993 -12.394,9.264 0.653,1.856 2.137,3.222 3.415,4.637 -11.611,7.815 -11.187,16.115 -21.788,16.73 1.444,1.027 3.014,1.841 4.618,2.563 -5.152,5.832 -3.464,9.863 -8.333,15.378 -1.527,1.977 -3.92,2.906 -5.834,4.423 1.124,0.941 2.51,1.381 3.934,1.531 -3.154,8.557 -0.982,1.908 -1.846,23.513 13.141,-4.042 13.186,-0.126 22.645,-5.697 0.354,1.478 1.245,2.675 2.49,3.498 5.588,-13.797 9.673,-8.4 16.958,-17.219 0.877,1.356 1.818,2.674 3.038,3.725 -0.322,-11.465 11.004,-13.94 12.815,-23.881 1.947,0.911 3.707,2.398 5.892,2.646 14.881,-9.122 -4.012,-36.963 10.16,-49.191 81.197,-82.914 259.981,-26.877 264.537,111.919 2.554,23.415 -7.282,62.588 -10.683,67.04 -0.371,-1.528 -0.145,-11.128 -2.098,-18.067 -15.467,-54.388 -82.706,-46.564 -87.282,-3.924 -5.749,40.17 49.582,55.864 61.464,18.847 -2.508,2.215 -4.071,7.161 -12.664,10.465 -12.454,5.541 -29.564,-1.912 -32.689,-15.771 -2.435,-20.049 13.313,-29.383 24.85,-28.265 35.055,4.206 51.708,56.911 13.367,95.451 -111.82,122.328 -380.292,2.138 -301.997,-224.144 66.444,-169.749998 286.816,-153.167998 339.677,-131.768998 0.223,2.755998 -0.155,5.517998 0.01,8.269998 -0.143,7.608 7.228,19.033 19.123,21.25 15.354,3.868 24.963,-9.825 26.134,-11.041 36.431,18.264 66.097,40.523 74.317,48.847 14.706,14.787 51.668,52.783 62.767,70.887 34.743,52.59 57.221,120.494 64.787,181.096 3.609,17.611 2.991,71.703 3.014,73.058 -0.383,-3.275 -0.397,-6.73 -0.567,-10.087 0.335,20.133 -3.992,57.438 -6.545,67.2 -21.661,54.689 -76.715,48.675 -84.128,23.033 -6.633,-18.993 14.907,-40.193 35.761,-24.947 4.997,3.261 10.566,12.283 9.952,21.042 -0.029,2.016 -0.911,3.958 -0.538,5.974 6.525,-8.41 6.547,-24.781 -5.373,-36.308 -19.163,-17.765 -48.343,-8.091 -56.817,14.709 -19.004,49.032 56.632,86.714 93.673,26.876 0.412,-0.82 1.187,-1.313 2.016,-1.648 -1.569,11.919 -19.661,85.069 -60.175,174.526 -19.613,49.665 -103.474,179.17 -74.172,301.37702 12.73,53.091 50.539,92.437 102.308,109.165 22.015,7.114 45.227,8.262 68.161,9.161 63.718,2.495 131.739,-11.167 169.557,-67.474 9.946,-14.808 18.859,-33.104 21.817,-50.852 29.302,-122.20802 -54.558,-251.71202 -74.172,-301.37802 -40.514,-89.457 -58.606,-162.607 -60.175,-174.526 0.829,0.334 1.604,0.828 2.016,1.648 37.041,59.838 112.678,22.156 93.673,-26.876 -8.474,-22.801 -37.654,-32.474 -56.817,-14.709 -11.92,11.527 -11.898,27.898 -5.373,36.308 0.373,-2.016 -0.509,-3.958 -0.538,-5.974 -0.614,-8.759 4.955,-17.781 9.952,-21.042 20.854,-15.246 42.394,5.955 35.761,24.947 -7.413,25.642 -62.467,31.656 -84.128,-23.033 -2.553,-9.763 -6.881,-47.067 -6.545,-67.2 -0.17,3.357 -0.184,6.812 -0.567,10.087 0.023,-1.354 -0.595,-55.446 3.014,-73.058 7.566,-60.602 30.044,-128.506 64.787,-181.096 11.099,-18.105 48.061,-56.101 62.767,-70.887 8.22,-8.325 37.886,-30.584 74.317,-48.847 1.171,1.216 10.78,14.909 26.134,11.041 11.896,-2.218 19.266,-13.642 19.123,-21.25 0.165,-2.752 -0.214,-5.514 0.01,-8.269998 52.862,-21.398 273.233,-37.981 339.677,131.768998 78.294,226.282 -190.178,346.471 -301.997,224.144 -38.341,-38.54 -21.688,-91.245 13.367,-95.451 11.537,-1.118 27.285,8.217 24.85,28.265 -3.125,13.859 -20.236,21.312 -32.689,15.771 -8.594,-3.305 -10.156,-8.25 -12.664,-10.465 11.882,37.016 67.213,21.323 61.464,-18.847 -4.577,-42.64 -71.815,-50.463 -87.282,3.924 -1.952,6.94 -1.727,16.54 -2.098,18.067 -3.402,-4.452 -13.237,-43.625 -10.683,-67.04 4.555,-138.795 183.34,-194.833 264.537,-111.919 14.172,12.228 -4.721,40.069 10.16,49.191 2.185,-0.247 3.944,-1.735 5.892,-2.646 1.811,9.941 13.137,12.416 12.815,23.881 1.221,-1.051 2.161,-2.369 3.038,-3.725 7.284,8.818 11.369,3.422 16.958,17.219 1.245,-0.823 2.137,-2.02 2.49,-3.498 9.459,5.571 9.504,1.655 22.645,5.697 -0.864,-21.605 1.308,-14.956 -1.846,-23.513 1.424,-0.15 2.81,-0.591 3.934,-1.531 -1.914,-1.517 -4.307,-2.447 -5.834,-4.423 -4.869,-5.516 -3.181,-9.546 -8.333,-15.378 1.604,-0.722 3.174,-1.536 4.618,-2.563 -10.601,-0.614 -10.177,-8.915 -21.788,-16.73 1.279,-1.415 2.762,-2.781 3.415,-4.637 0.474,-1.27 -5.311,-8.362 -12.394,-9.264 -8.026,-0.625 -17.015,1.534 -27.897,-3.755 -0.911,-0.412 -50.788,-57.454 -130.059,-46.701 -86.009,7.913 -153.308,83.197 -151.837,157.225 0.176,129.248 101.646,215.099 245.132,171.154 144.29,-46.816 185.616,-224.989 87.927,-340.637 -49.226,-60.046 -137.569,-86.000998 -185.849,-86.642998 0.068,-0.31 0.199,-0.935 0.266,-1.245 7.28,-0.413 50.801,-0.052 106.168,13.053 194.938,50.251998 318.897,203.586998 477.987,230.693998 2.588,0.379 57.707,20.28 70.344,49.835 1.866,-0.281 3.527,-1.241 5.15,-2.18 7.281,-4.245 6.798,-7.601 9.365,-9.544 4.307,14.596 25.309,11.388 37.534,28.842 0.256,0.314 0.494,0.94 0.998,0.567 5.617,-9.544 4.941,-16.828 3.668,-23.89 3.017,1.371 8.239,6.443 21.395,7.941 19.556,0.893 43.999,-9.89 60.858,4.641 0.422,-9.733 -2.074,-20.024 -8.634,-27.461 -0.48,-0.649 -1.168,-1.303 -1.042,-2.205 3.376,0.942 17.577,7.436 37.354,-2.476 8.123,-3.8 29.561,-19.597 44.758,-18.043 -1.51,-7.29 -7.88,-16.247 -12.583,-22.079 -18.674,-21.064 -41.58,-16.381 -43.741,-18.178 3.024,-2.534 6.26,-5.063 8.087,-8.663 2.989,-5.348 2.48,-12.098 -0.228,-17.461 -1.022,0.819 -10.657,10.602 -26.187,10.262 0,0 -17.107,0.339 -17.108,0.339 -0.567,-1.439 1.104,-2.263 1.846,-3.28 34.366,-39.544 40.164,-74.195 36.26,-119.846 C 2554.291,44.030782 2445.423,6.6707816 2373.19,71.084782 c -69.684,64.767998 -14.924,182.392998 74.836,162.340998 10.872,-2.597 21.487,-7.441 29.516,-15.358 -7.957,4.026 -13.776,14.314 -47.936,15.185 -19.008,0.684 -27.843,-9.792 -27.355,-25.81 0.983,-28.703 6.897,-29.093 -7.907,-44.177 -8.328,-8.569 -14.154,-13.988 -25.654,-32.893 -18.302,-30.848998 9.608,-54.520998 13.217,-54.577998 -0.774,2.734 -11.007,17.271 -7.253,36.651998 5.327,30.494 35.24,39.625 51.618,33.944 38.52,-10.336 32.017,-65.337998 -3.45,-65.591998 -2.723,0.16 -5.543,0.387 -7.941,1.792 2.461,0.208 5.009,-0.068 7.398,0.765 9.646,2.8 17.737,11.589 18.305,21.825998 1.196,25.075 -25.672,31.352 -39.114,17.989 -17.538,-17.739 -7.61,-70.360998 59.622,-72.127998 33.927,-1.91 91.615,33.827 96.701,105.993998 1.904,79.121 -50.003,114.029 -53.314,114.758 0.291,-8.529 -4.161,-19.866 -5.688,-21.71 -5.936,15.987 -23.443,12.112 -34.816,13.74 -19.107,1.69 -30.923,13.448 -33.925,14.128 0.063,-1.254 3,-10.424 -5.29,-16.25 -1.67,1.061 -25.452,36.117 -74.163,41.294 -167.279,-26.603 -296.536,-198.962 -517.328,-232.650998 -35.406,-8.203 -127.308,-10.443 -209.996,18.901 -0.969,0.553 -1.599,-0.524 -2.258,-1.052 -5.935,-6.239 -16.325,-8.705 -23.731,-6.071 -18.226,5.123 -17.534,23.829998 -17.698,24.805998 -100.347,40.888 -179.225,100.56 -235.656,177.192 z m 0,65.968 c -34.462,-71.395 -84.462,-133.914 -147.016,-185.052 -0.713,-0.553 -0.65,-1.085 0.179,-1.609 5.157,1.164 85.581,54.962 146.837,147.503 61.256,-92.541 141.679,-146.339 146.837,-147.503 0.829,0.524 0.892,1.056 0.179,1.609 -62.554,51.138 -112.554,113.657 -147.016,185.052 z m 0,812.76602 c -0.459,0 -0.919,-10e-4 -1.378,-0 -35.225,-0.134 -69.134,-3.303 -100.536,-20.788 -0.553,-0.308 -1.104,-0.62 -1.653,-0.934 -23.949,-13.299 -38.198,-30.296 -48.222,-46.386 -86.194,-140.93502 86.615,-349.99002 109.12,-475.14902 0.387,-0.034 1.168,-0.102 1.555,-0.135 -7.626,47.157 22.389,109.723 41.114,141.205 18.725,-31.482 48.74,-94.048 41.114,-141.205 0.387,0.034 1.168,0.102 1.555,0.135 22.504,125.158 195.313,334.214 109.12,475.14902 -10.024,16.091 -24.273,33.088 -48.222,46.386 -31.679,17.59 -67.891,21.754 -103.567,21.725 z"
   id="path2"
   inkscape:connector-curvature="0"
   style="fill:#020202" />
	<path
   d="m 1225.189,664.84178 c -2.094,4.196 -2.244,13.933 4.211,19.618 9.6,8.981 25.652,3.64 28.619,-8.586 4.986,-20.597 -23.803,-30.857 -32.83,-11.032 z"
   id="path4"
   inkscape:connector-curvature="0"
   style="fill:#020202" />
	<path
   d="m 1462.672,664.84178 c 2.094,4.196 2.244,13.933 -4.211,19.618 -9.6,8.981 -25.652,3.64 -28.619,-8.586 -4.986,-20.597 23.802,-30.857 32.83,-11.032 z"
   id="path6"
   inkscape:connector-curvature="0"
   style="fill:#020202" />
	<path
   d="m 678.506,275.26178 c 12.116,-115.151 103.027,-161.228 105.475,-163.668 -34.315,14.372 -72.123,50.71 -89.86,81.677 -86.679,134.136 30.656,314.137 6.647,414.343 -16.751,62.803 -83.327,66.858 -94.942,57.5 -31.049,-24.532 -20.816,-64.101 -18.208,-81.124 8.133,-45.65 -13.71,-42.552 -35.698,-86.056 -2.253,3.008 -3.779,6.477 -5.678,9.709 -19.212,33.297 -48.403,76.323 -19.642,123.915 16.327,27.542 43.13,34.261 69.787,43.334 30.223,10.83 62.039,4.71 83.751,-11.129 104.439,-75.701 -18.697,-265.881 -1.632,-388.501 z"
   id="path8"
   inkscape:connector-curvature="0"
   style="fill:#020202" />
	<path
   d="m 2009.355,275.26178 c -12.117,-115.151 -103.027,-161.228 -105.475,-163.668 34.315,14.372 72.123,50.71 89.86,81.677 86.679,134.136 -30.656,314.137 -6.647,414.343 16.751,62.803 83.327,66.858 94.942,57.5 31.049,-24.532 20.816,-64.101 18.207,-81.124 -8.133,-45.65 13.71,-42.552 35.698,-86.056 2.253,3.008 3.779,6.477 5.678,9.709 19.212,33.297 48.403,76.323 19.641,123.915 -16.327,27.542 -43.13,34.261 -69.787,43.334 -30.223,10.83 -62.039,4.71 -83.751,-11.129 -104.437,-75.701 18.699,-265.881 1.634,-388.501 z"
   id="path10"
   inkscape:connector-curvature="0"
   style="fill:#020202" />
	<path
   d="m 1220.417,627.15778 c -17.632,-7.315 -32.033,15.724 -18.813,28.416 8.119,8.959 25.993,6.085 29.263,-7.849 2.243,-8.183 -2.369,-17.699 -10.45,-20.567 z"
   id="path12"
   inkscape:connector-curvature="0"
   style="fill:#020202" />
	<path
   d="m 1467.444,627.15778 c 17.632,-7.315 32.033,15.724 18.813,28.416 -8.119,8.959 -25.993,6.085 -29.263,-7.849 -2.243,-8.183 2.369,-17.699 10.45,-20.567 z"
   id="path14"
   inkscape:connector-curvature="0"
   style="fill:#020202" />
	<path
   d="m 1247.297,650.05078 c 6.686,4.242 20.083,2.555 24.54,-8.363 4.351,-9.216 -0.912,-25.109 -18.852,-24.05 -16.1,2.349 -20.044,24.629 -5.688,32.413 z"
   id="path16"
   inkscape:connector-curvature="0"
   style="fill:#020202" />
	<path
   d="m 1440.564,650.05078 c -6.686,4.242 -20.083,2.555 -24.54,-8.363 -4.351,-9.216 0.911,-25.109 18.852,-24.05 16.1,2.349 20.044,24.629 5.688,32.413 z"
   id="path18"
   inkscape:connector-curvature="0"
   style="fill:#020202" />
	<path
   d="m 1041.201,309.98578 c -16.064,2.473 -19.595,25.116 -4.506,32.685 6.889,3.459 16.203,1.757 21.429,-4.884 8.022,-10.39 2.641,-29.656 -16.923,-27.801 z"
   id="path20"
   inkscape:connector-curvature="0"
   style="fill:#020202" />
	<path
   d="m 1646.659,309.98578 c 16.064,2.473 19.595,25.116 4.506,32.685 -6.889,3.459 -16.203,1.757 -21.429,-4.884 -8.021,-10.39 -2.64,-29.656 16.923,-27.801 z"
   id="path22"
   inkscape:connector-curvature="0"
   style="fill:#020202" />
	<path
   d="m 990.018,323.18378 c 5.494,13.09 22.931,14.454 30.374,3.546 4.923,-6.65 4.857,-18.813 -5.383,-25.179 -13.633,-8.246 -31.405,5.477 -24.991,21.633 z"
   id="path24"
   inkscape:connector-curvature="0"
   style="fill:#020202" />
	<path
   d="m 1697.842,323.18378 c -5.494,13.09 -22.931,14.454 -30.374,3.546 -4.923,-6.65 -4.857,-18.813 5.383,-25.179 13.634,-8.246 31.406,5.477 24.991,21.633 z"
   id="path26"
   inkscape:connector-curvature="0"
   style="fill:#020202" />
	<path
   d="m 1037.238,270.14178 c -20.041,-7.658 -32.352,20.535 -15.896,30.766 9.257,6.584 24.037,1.735 26.739,-10.272 1.358,-11.136 -3.261,-17.756 -10.843,-20.494 z"
   id="path28"
   inkscape:connector-curvature="0"
   style="fill:#020202" />
	<path
   d="m 1650.623,270.14178 c 20.041,-7.658 32.352,20.535 15.896,30.766 -9.257,6.584 -24.037,1.735 -26.739,-10.272 -1.358,-11.136 3.26,-17.756 10.843,-20.494 z"
   id="path30"
   inkscape:connector-curvature="0"
   style="fill:#020202" />
</g>
</svg>