<?xml version="1.0" encoding="utf-8"?>

<!DOCTYPE svg PUBLIC "-//W3C//DTD SVG 1.1//EN" "http://www.w3.org/Graphics/SVG/1.1/DTD/svg11.dtd">
<svg version="1.1" id="Layer_1" xmlns="http://www.w3.org/2000/svg" xmlns:xlink="http://www.w3.org/1999/xlink" x="0px" y="0px"
	 viewBox="0 0 2687.859 1211.516" enable-background="new 0 0 2687.859 1211.516" xml:space="preserve">
<g>
	<path fill="#020202" d="M1343.93,927.689c56.431,76.632,135.308,136.304,235.658,177.191c0.164,0.976-0.528,19.683,17.698,24.806
		c7.406,2.634,17.797,0.168,23.731-6.071c0.659-0.528,1.289-1.604,2.258-1.052c82.688,29.344,174.59,27.104,209.996,18.901
		c220.792-33.689,350.05-206.048,517.328-232.651c48.71,5.178,72.492,40.234,74.163,41.294c8.29-5.826,5.353-14.996,5.29-16.25
		c3.002,0.68,14.817,12.437,33.925,14.128c11.373,1.629,28.88-2.247,34.816,13.74c1.528-1.844,5.979-13.181,5.688-21.71
		c3.312,0.729,55.218,35.637,53.314,114.758c-5.087,72.167-62.774,107.905-96.701,105.994c-67.232-1.767-77.16-54.389-59.623-72.128
		c13.442-13.362,40.31-7.086,39.114,17.989c-0.567,10.237-8.658,19.026-18.305,21.826c-2.388,0.833-4.937,0.557-7.398,0.765
		c2.398,1.405,5.219,1.632,7.941,1.792c35.467-0.254,41.969-55.255,3.45-65.592c-16.379-5.681-46.292,3.45-51.618,33.944
		c-3.753,19.381,6.479,33.918,7.253,36.652c-3.609-0.057-31.519-23.729-13.217-54.578c11.5-18.905,17.326-24.324,25.654-32.893
		c14.804-15.084,8.89-15.474,7.907-44.177c-0.488-16.018,8.346-26.494,27.355-25.81c34.16,0.871,39.979,11.159,47.936,15.185
		c-8.029-7.917-18.644-12.762-29.516-15.358c-89.76-20.052-144.52,97.573-74.836,162.341c72.232,64.415,181.1,27.054,197.084-75.34
		c3.905-45.651-1.894-80.302-36.26-119.846c-0.742-1.017-2.413-1.841-1.846-3.28c0.001,0,17.108,0.339,17.108,0.339
		c15.53-0.341,25.164,9.443,26.187,10.262c2.708-5.363,3.217-12.113,0.228-17.461c-1.827-3.6-5.063-6.129-8.087-8.663
		c2.16-1.798,25.067,2.886,43.741-18.178c4.703-5.832,11.072-14.789,12.583-22.079c-15.197,1.554-36.635-14.243-44.758-18.043
		c-19.778-9.912-33.978-3.417-37.354-2.476c-0.126-0.902,0.562-1.556,1.042-2.205c6.56-7.437,9.055-17.727,8.634-27.461
		c-16.859,14.531-41.302,3.748-60.858,4.641c-13.156,1.499-18.378,6.57-21.396,7.941c1.273-7.063,1.948-14.346-3.668-23.89
		c-0.504-0.373-0.742,0.253-0.998,0.567c-12.226,17.454-33.228,14.247-37.534,28.842c-2.568-1.943-2.084-5.299-9.365-9.544
		c-1.623-0.94-3.285-1.9-5.15-2.18c-12.637,29.555-67.755,49.456-70.344,49.835c-159.09,27.107-283.049,180.441-477.987,230.694
		c-55.366,13.104-98.888,13.465-106.168,13.053c-0.067-0.31-0.198-0.935-0.266-1.245c48.28-0.642,136.622-26.597,185.849-86.643
		c97.689-115.648,56.363-293.821-87.927-340.637c-143.487-43.945-244.956,41.906-245.132,171.154
		c-1.471,74.027,65.828,149.311,151.837,157.225c79.271,10.753,129.147-46.289,130.059-46.701
		c10.882-5.289,19.871-3.13,27.897-3.755c7.082-0.901,12.867-7.993,12.394-9.264c-0.653-1.856-2.137-3.222-3.415-4.637
		c11.611-7.815,11.187-16.115,21.788-16.73c-1.444-1.027-3.014-1.841-4.618-2.563c5.152-5.832,3.464-9.863,8.333-15.378
		c1.527-1.977,3.92-2.906,5.834-4.423c-1.124-0.941-2.51-1.381-3.934-1.531c3.154-8.557,0.982-1.908,1.846-23.513
		c-13.141,4.042-13.186,0.126-22.645,5.697c-0.354-1.478-1.245-2.675-2.49-3.498c-5.588,13.797-9.673,8.4-16.958,17.219
		c-0.877-1.356-1.818-2.674-3.038-3.725c0.322,11.465-11.004,13.94-12.815,23.881c-1.947-0.911-3.707-2.398-5.892-2.646
		c-14.881,9.122,4.012,36.963-10.16,49.191c-81.197,82.914-259.981,26.877-264.537-111.919c-2.554-23.415,7.282-62.588,10.683-67.04
		c0.371,1.528,0.145,11.128,2.098,18.067c15.467,54.388,82.706,46.564,87.282,3.924c5.749-40.17-49.582-55.864-61.464-18.847
		c2.508-2.215,4.071-7.161,12.664-10.465c12.454-5.541,29.564,1.912,32.689,15.771c2.435,20.049-13.313,29.383-24.85,28.265
		c-35.055-4.206-51.708-56.911-13.367-95.451c111.82-122.328,380.292-2.138,301.997,224.144
		c-66.444,169.75-286.816,153.168-339.677,131.769c-0.223-2.756,0.155-5.518-0.01-8.27c0.143-7.608-7.228-19.033-19.123-21.25
		c-15.354-3.868-24.963,9.825-26.134,11.041c-36.431-18.264-66.097-40.523-74.317-48.847
		c-14.706-14.787-51.668-52.783-62.767-70.887c-34.743-52.59-57.221-120.494-64.787-181.096
		c-3.609-17.611-2.991-71.703-3.014-73.058c0.383,3.275,0.397,6.73,0.567,10.087c-0.335-20.133,3.992-57.438,6.545-67.2
		c21.661-54.689,76.715-48.675,84.128-23.033c6.633,18.993-14.907,40.193-35.761,24.947c-4.997-3.261-10.566-12.283-9.952-21.042
		c0.029-2.016,0.911-3.958,0.538-5.974c-6.525,8.41-6.547,24.781,5.373,36.308c19.163,17.765,48.343,8.091,56.817-14.709
		c19.004-49.032-56.632-86.714-93.673-26.876c-0.412,0.82-1.187,1.313-2.016,1.648c1.569-11.919,19.661-85.069,60.175-174.526
		c19.613-49.665,103.474-179.17,74.172-301.377c-12.73-53.091-50.539-92.437-102.308-109.165
		c-22.015-7.114-45.227-8.262-68.161-9.161c-63.718-2.495-131.739,11.167-169.557,67.474c-9.946,14.808-18.859,33.104-21.817,50.852
		c-29.302,122.208,54.558,251.712,74.172,301.378c40.514,89.457,58.606,162.607,60.175,174.526
		c-0.829-0.334-1.604-0.828-2.016-1.648c-37.041-59.838-112.678-22.156-93.673,26.876c8.474,22.801,37.654,32.474,56.817,14.709
		c11.92-11.527,11.898-27.898,5.373-36.308c-0.373,2.016,0.509,3.958,0.538,5.974c0.614,8.759-4.955,17.781-9.952,21.042
		c-20.854,15.246-42.394-5.955-35.761-24.947c7.413-25.642,62.467-31.656,84.128,23.033c2.553,9.763,6.881,47.067,6.545,67.2
		c0.17-3.357,0.184-6.812,0.567-10.087c-0.023,1.354,0.595,55.446-3.014,73.058c-7.566,60.602-30.044,128.506-64.787,181.096
		c-11.099,18.105-48.061,56.101-62.767,70.887c-8.22,8.325-37.886,30.584-74.317,48.847c-1.171-1.216-10.78-14.909-26.134-11.041
		c-11.896,2.218-19.266,13.642-19.123,21.25c-0.165,2.752,0.214,5.514-0.01,8.27c-52.862,21.398-273.233,37.981-339.677-131.769
		c-78.294-226.282,190.178-346.471,301.997-224.144c38.341,38.54,21.688,91.245-13.367,95.451
		c-11.537,1.118-27.285-8.217-24.85-28.265c3.125-13.859,20.236-21.312,32.689-15.771c8.594,3.305,10.156,8.25,12.664,10.465
		c-11.882-37.016-67.213-21.323-61.464,18.847c4.577,42.64,71.815,50.463,87.282-3.924c1.952-6.94,1.727-16.54,2.098-18.067
		c3.402,4.452,13.237,43.625,10.683,67.04c-4.555,138.795-183.34,194.833-264.537,111.919c-14.172-12.228,4.721-40.069-10.16-49.191
		c-2.185,0.247-3.944,1.735-5.892,2.646c-1.811-9.941-13.137-12.416-12.815-23.881c-1.221,1.051-2.161,2.369-3.038,3.725
		c-7.284-8.818-11.369-3.422-16.958-17.219c-1.245,0.823-2.137,2.02-2.49,3.498c-9.459-5.571-9.504-1.655-22.645-5.697
		c0.864,21.605-1.308,14.956,1.846,23.513c-1.424,0.15-2.81,0.591-3.934,1.531c1.914,1.517,4.307,2.447,5.834,4.423
		c4.869,5.516,3.181,9.546,8.333,15.378c-1.604,0.722-3.174,1.536-4.618,2.563c10.601,0.614,10.177,8.915,21.788,16.73
		c-1.279,1.415-2.762,2.781-3.415,4.637c-0.474,1.27,5.311,8.362,12.394,9.264c8.026,0.625,17.015-1.534,27.897,3.755
		c0.911,0.412,50.788,57.454,130.059,46.701c86.009-7.913,153.308-83.197,151.837-157.225
		c-0.176-129.248-101.646-215.099-245.132-171.154c-144.29,46.816-185.616,224.989-87.927,340.637
		c49.226,60.046,137.569,86.001,185.849,86.643c-0.068,0.31-0.199,0.935-0.266,1.245c-7.28,0.413-50.801,0.052-106.168-13.053
		c-194.938-50.252-318.897-203.587-477.987-230.694c-2.588-0.379-57.707-20.28-70.344-49.835c-1.866,0.281-3.527,1.241-5.15,2.18
		c-7.281,4.245-6.798,7.601-9.365,9.544c-4.307-14.596-25.309-11.388-37.534-28.842c-0.256-0.314-0.494-0.94-0.998-0.567
		c-5.617,9.544-4.941,16.828-3.668,23.89c-3.017-1.371-8.239-6.443-21.395-7.941c-19.556-0.893-43.999,9.89-60.858-4.641
		c-0.422,9.733,2.074,20.024,8.634,27.461c0.48,0.649,1.168,1.303,1.042,2.205c-3.376-0.942-17.577-7.436-37.354,2.476
		c-8.123,3.8-29.561,19.597-44.758,18.043c1.51,7.29,7.88,16.247,12.583,22.079c18.674,21.064,41.58,16.381,43.741,18.178
		c-3.024,2.534-6.26,5.063-8.087,8.663c-2.989,5.348-2.48,12.098,0.228,17.461c1.022-0.819,10.657-10.602,26.187-10.262
		c0,0,17.107-0.339,17.108-0.339c0.567,1.439-1.104,2.263-1.846,3.28c-34.366,39.544-40.164,74.195-36.26,119.846
		c15.984,102.394,124.852,139.754,197.085,75.34c69.684-64.768,14.924-182.393-74.836-162.341
		c-10.872,2.597-21.487,7.441-29.516,15.358c7.957-4.026,13.776-14.314,47.936-15.185c19.008-0.684,27.843,9.792,27.355,25.81
		c-0.983,28.703-6.897,29.093,7.907,44.177c8.328,8.569,14.154,13.988,25.654,32.893c18.302,30.849-9.608,54.521-13.217,54.578
		c0.774-2.734,11.007-17.271,7.253-36.652c-5.327-30.494-35.24-39.625-51.618-33.944c-38.52,10.336-32.017,65.338,3.45,65.592
		c2.723-0.16,5.543-0.387,7.941-1.792c-2.461-0.208-5.009,0.068-7.398-0.765c-9.646-2.8-17.737-11.589-18.305-21.826
		c-1.196-25.075,25.672-31.352,39.114-17.989c17.538,17.739,7.61,70.361-59.622,72.128c-33.927,1.91-91.615-33.827-96.701-105.994
		c-1.904-79.121,50.003-114.029,53.314-114.758c-0.291,8.529,4.161,19.866,5.688,21.71c5.936-15.987,23.443-12.112,34.816-13.74
		c19.107-1.69,30.923-13.448,33.925-14.128c-0.063,1.254-3,10.424,5.29,16.25c1.67-1.061,25.452-36.117,74.163-41.294
		c167.279,26.603,296.536,198.962,517.328,232.651c35.406,8.203,127.308,10.443,209.996-18.901c0.969-0.553,1.599,0.524,2.258,1.052
		c5.935,6.239,16.325,8.705,23.731,6.071c18.226-5.123,17.534-23.83,17.698-24.806
		C1208.621,1063.993,1287.499,1004.321,1343.93,927.689z M1343.93,861.721c34.462,71.395,84.462,133.914,147.016,185.052
		c0.713,0.553,0.65,1.085-0.179,1.609c-5.157-1.164-85.581-54.962-146.837-147.503c-61.256,92.541-141.679,146.339-146.837,147.503
		c-0.829-0.524-0.892-1.056-0.179-1.609C1259.468,995.635,1309.468,933.116,1343.93,861.721z M1343.93,48.955
		c0.459,0,0.919,0.001,1.378,0.003c35.225,0.134,69.134,3.303,100.536,20.788c0.553,0.308,1.104,0.62,1.653,0.934
		c23.949,13.299,38.198,30.296,48.222,46.386c86.194,140.935-86.615,349.99-109.12,475.149c-0.387,0.034-1.168,0.102-1.555,0.135
		c7.626-47.157-22.389-109.723-41.114-141.205c-18.725,31.482-48.74,94.048-41.114,141.205c-0.387-0.034-1.168-0.102-1.555-0.135
		c-22.504-125.158-195.313-334.214-109.12-475.149c10.024-16.091,24.273-33.088,48.222-46.386
		C1272.042,53.09,1308.254,48.926,1343.93,48.955z"/>
	<path fill="#020202" d="M1462.671,546.969c2.094-4.196,2.244-13.933-4.211-19.618c-9.6-8.981-25.652-3.64-28.619,8.586
		C1424.855,556.534,1453.644,566.794,1462.671,546.969z"/>
	<path fill="#020202" d="M1225.188,546.969c-2.094-4.196-2.244-13.933,4.211-19.618c9.6-8.981,25.652-3.64,28.619,8.586
		C1263.004,556.534,1234.216,566.794,1225.188,546.969z"/>
	<path fill="#020202" d="M2009.354,936.549c-12.116,115.151-103.027,161.228-105.475,163.668
		c34.315-14.372,72.123-50.71,89.86-81.677c86.679-134.136-30.656-314.137-6.647-414.343c16.751-62.803,83.327-66.858,94.942-57.5
		c31.049,24.532,20.816,64.101,18.208,81.124c-8.133,45.65,13.71,42.552,35.698,86.056c2.253-3.008,3.779-6.477,5.678-9.709
		c19.212-33.297,48.403-76.323,19.642-123.915c-16.327-27.542-43.13-34.261-69.787-43.334c-30.223-10.83-62.039-4.71-83.751,11.129
		C1903.283,623.749,2026.419,813.929,2009.354,936.549z"/>
	<path fill="#020202" d="M678.505,936.549c12.117,115.151,103.027,161.228,105.475,163.668
		c-34.315-14.372-72.123-50.71-89.86-81.677c-86.679-134.136,30.656-314.137,6.647-414.343
		c-16.751-62.803-83.327-66.858-94.942-57.5c-31.049,24.532-20.816,64.101-18.207,81.124c8.133,45.65-13.71,42.552-35.698,86.056
		c-2.253-3.008-3.779-6.477-5.678-9.709c-19.212-33.297-48.403-76.323-19.641-123.915c16.327-27.542,43.13-34.261,69.787-43.334
		c30.223-10.83,62.039-4.71,83.751,11.129C784.576,623.749,661.44,813.929,678.505,936.549z"/>
	<path fill="#020202" d="M1467.443,584.653c17.632,7.315,32.033-15.724,18.813-28.416c-8.119-8.959-25.993-6.085-29.263,7.849
		C1454.75,572.269,1459.362,581.785,1467.443,584.653z"/>
	<path fill="#020202" d="M1220.416,584.653c-17.632,7.315-32.033-15.724-18.813-28.416c8.119-8.959,25.993-6.085,29.263,7.849
		C1233.109,572.269,1228.497,581.785,1220.416,584.653z"/>
	<path fill="#020202" d="M1440.563,561.76c-6.686-4.242-20.083-2.555-24.54,8.363c-4.351,9.216,0.912,25.109,18.852,24.05
		C1450.975,591.824,1454.919,569.544,1440.563,561.76z"/>
	<path fill="#020202" d="M1247.296,561.76c6.686-4.242,20.083-2.555,24.54,8.363c4.351,9.216-0.911,25.109-18.852,24.05
		C1236.884,591.824,1232.94,569.544,1247.296,561.76z"/>
	<path fill="#020202" d="M1646.659,901.825c16.064-2.473,19.595-25.116,4.506-32.685c-6.889-3.459-16.203-1.757-21.429,4.884
		C1621.714,884.414,1627.095,903.68,1646.659,901.825z"/>
	<path fill="#020202" d="M1041.201,901.825c-16.064-2.473-19.595-25.116-4.506-32.685c6.889-3.459,16.203-1.757,21.429,4.884
		C1066.145,884.414,1060.764,903.68,1041.201,901.825z"/>
	<path fill="#020202" d="M1697.842,888.627c-5.494-13.09-22.931-14.454-30.374-3.546c-4.923,6.65-4.857,18.813,5.383,25.179
		C1686.484,918.506,1704.256,904.783,1697.842,888.627z"/>
	<path fill="#020202" d="M990.018,888.627c5.494-13.09,22.931-14.454,30.374-3.546c4.923,6.65,4.857,18.813-5.383,25.179
		C1001.375,918.506,983.603,904.783,990.018,888.627z"/>
	<path fill="#020202" d="M1650.622,941.669c20.041,7.658,32.352-20.535,15.896-30.766c-9.257-6.584-24.037-1.735-26.739,10.272
		C1638.421,932.311,1643.04,938.931,1650.622,941.669z"/>
	<path fill="#020202" d="M1037.237,941.669c-20.041,7.658-32.352-20.535-15.896-30.766c9.257-6.584,24.037-1.735,26.739,10.272
		C1049.438,932.311,1044.82,938.931,1037.237,941.669z"/>
</g>
</svg>
